<?xml version="1.0" standalone="no"?>
<!DOCTYPE svg PUBLIC "-//W3C//DTD SVG 20010904//EN"
 "http://www.w3.org/TR/2001/REC-SVG-20010904/DTD/svg10.dtd">
<svg version="1.0" xmlns="http://www.w3.org/2000/svg"
 width="460.000000pt" height="460.000000pt" viewBox="0 0 460.000000 460.000000"
 preserveAspectRatio="xMidYMid meet">
<metadata>
Created by potrace 1.14, written by Peter Selinger 2001-2017
</metadata>
<g transform="translate(0.000000,460.000000) scale(0.100000,-0.100000)"
fill="#000000" stroke="none">
<path d="M1148 4010 c4 -50 3 -53 -34 -87 l-39 -34 50 5 c49 6 51 5 86 -35
l35 -41 -6 56 c-3 31 -4 56 -1 56 4 0 22 14 41 31 l35 30 -52 -4 c-52 -5 -54
-4 -86 35 l-34 40 5 -52z"/>
<path d="M2037 3944 c-1 -1 -31 -5 -66 -8 -167 -17 -303 -54 -461 -128 -212
-99 -406 -265 -567 -487 -2 -2 -11 3 -21 12 -22 20 -33 22 -27 5 3 -7 6 -30 9
-52 3 -35 -1 -43 -43 -87 -26 -27 -41 -49 -34 -49 18 0 17 -6 -11 -75 -13 -33
-30 -75 -37 -94 -11 -29 -14 -31 -24 -17 -18 24 -21 20 -17 -22 3 -33 -1 -42
-28 -65 l-32 -27 37 0 c31 0 34 -2 27 -17 -14 -26 -30 -140 -31 -220 -1 -41
-2 -42 -27 -33 -58 22 -169 11 -202 -21 -44 -40 -36 -147 12 -150 11 -1 54 -1
94 -1 79 1 128 -11 129 -31 0 -15 13 -113 19 -140 3 -20 3 -20 -19 0 -82 76
-242 83 -345 15 -65 -41 -80 -100 -39 -147 12 -14 36 -29 53 -34 36 -10 59 2
111 56 39 42 106 72 182 79 62 7 67 5 75 -38 2 -7 6 -20 9 -28 11 -26 12 -64
2 -65 -5 -1 -31 -14 -57 -30 -73 -45 -84 -98 -64 -305 6 -57 11 -90 30 -200 9
-55 39 -159 68 -240 31 -88 106 -242 120 -248 4 -2 8 -8 8 -13 0 -9 37 -66 50
-79 3 -3 24 -27 45 -55 39 -48 107 -118 176 -181 93 -83 272 -191 405 -243 56
-21 221 -68 269 -75 17 -2 50 -8 75 -11 106 -17 346 -12 473 10 239 42 456
137 652 284 66 50 242 222 270 264 l17 27 28 -43 c106 -168 359 -39 285 145
-5 13 -1 20 11 24 126 41 311 128 364 170 160 128 212 273 147 407 -58 116
-156 184 -285 194 -80 6 -152 -12 -215 -56 l-43 -29 2 101 c1 71 -3 110 -12
129 -15 28 -73 78 -92 78 -20 0 -21 16 -6 66 8 27 14 50 13 52 -6 15 17 85 35
101 33 31 122 58 202 60 38 1 79 4 90 6 10 2 23 4 27 4 4 1 14 16 22 33 27 66
-32 122 -127 121 -82 -1 -154 -40 -203 -108 -13 -18 -14 -11 -15 65 -2 153
-11 233 -42 355 -51 206 -150 408 -277 564 l-35 43 29 25 30 25 -42 -6 c-38
-5 -43 -3 -63 24 -12 17 -26 28 -31 24 -5 -3 -22 6 -37 20 -48 45 -86 76 -127
104 -22 15 -45 32 -51 37 -16 15 -9 45 15 62 12 8 35 27 51 42 l31 27 -43 -3
c-24 -2 -55 -5 -71 -7 -23 -4 -34 4 -69 45 -22 27 -44 49 -47 49 -4 0 -4 -27
-1 -59 3 -33 4 -64 2 -69 -2 -6 -31 2 -66 18 -55 25 -100 41 -221 79 -16 5
-46 12 -65 15 -19 3 -46 8 -59 10 -65 14 -295 29 -304 20z m1871 -2248 c42
-22 80 -71 88 -113 19 -100 -122 -216 -361 -298 -44 -15 -104 -38 -132 -51
-29 -13 -53 -22 -53 -20 0 2 13 34 28 72 16 38 37 99 47 136 l19 66 23 -34
c39 -57 108 -58 142 -3 19 31 18 53 -6 99 -24 46 -17 89 22 126 47 44 120 52
183 20z"/>
<path d="M3254 3930 c3 -8 7 -38 10 -66 5 -50 4 -52 -35 -85 -22 -18 -46 -37
-52 -42 -7 -5 17 -6 54 -3 l66 6 34 -41 c18 -22 37 -46 42 -52 4 -7 6 17 4 53
l-5 65 52 47 c33 31 44 46 31 43 -11 -2 -40 -6 -64 -8 -41 -4 -46 -2 -92 47
-27 28 -47 44 -45 36z"/>
<path d="M386 3334 c12 -117 13 -115 -72 -183 l-29 -24 70 6 70 6 48 -52 48
-52 -5 67 -6 67 50 42 c54 46 63 63 28 54 -13 -3 -41 -7 -63 -9 -37 -4 -43 0
-91 52 -50 54 -52 55 -48 26z"/>
<path d="M212 2410 c-70 -43 -57 -124 19 -116 14 2 49 15 79 30 30 15 69 28
87 29 18 1 33 5 33 8 0 12 -59 48 -96 58 -56 16 -85 14 -122 -9z"/>
<path d="M3725 2283 c-27 -14 -85 -68 -85 -78 0 -3 12 0 26 5 46 18 97 10 162
-24 66 -35 97 -37 107 -5 10 31 -4 58 -47 90 -47 34 -113 39 -163 12z"/>
<path d="M273 1590 c-85 -19 -101 -135 -25 -177 45 -25 90 -16 121 23 55 70
-10 173 -96 154z"/>
<path d="M4045 968 c-71 -14 -125 -81 -125 -154 0 -105 101 -189 197 -162 95
26 143 108 119 203 -8 35 -30 63 -71 91 -38 27 -69 32 -120 22z"/>
<path d="M3575 523 c-44 -11 -71 -80 -50 -129 28 -66 107 -78 158 -24 40 45
34 99 -17 142 -21 17 -51 21 -91 11z"/>
</g>
</svg>
